<?xml version="1.0" standalone="no"?><!DOCTYPE svg PUBLIC "-//W3C//DTD SVG 1.1//EN" "http://www.w3.org/Graphics/SVG/1.1/DTD/svg11.dtd"><svg class="icon" width="200px" height="200.00px" viewBox="0 0 1024 1024" version="1.1" xmlns="http://www.w3.org/2000/svg"><path fill="#333333" d="M547.2768 16.878933a51.080533 51.080533 0 0 0-70.5024-0.136533C349.627733 137.506133 102.929067 361.864533 102.929067 612.232533c0 225.928533 183.1424 409.070933 409.070933 409.070934s409.070933-183.1424 409.070933-409.070934c0-251.170133-243.541333-471.432533-373.794133-595.3536z m104.3456 559.0016L496.810667 792.610133c-9.642667 13.5168-30.958933 6.690133-30.958934-9.915733v-134.724267a17.066667 17.066667 0 0 0-17.066666-17.066666h-62.532267a17.066667 17.066667 0 0 1-13.892267-26.9824l154.811734-216.7296c9.642667-13.5168 30.958933-6.690133 30.958933 9.915733v134.7072a17.066667 17.066667 0 0 0 17.066667 17.066667h62.549333c13.8752 0.017067 21.947733 15.701333 13.8752 26.999466z"  /></svg>