<?xml version="1.0" standalone="no"?><!DOCTYPE svg PUBLIC "-//W3C//DTD SVG 1.1//EN" "http://www.w3.org/Graphics/SVG/1.1/DTD/svg11.dtd"><svg class="icon" width="200px" height="200.00px" viewBox="0 0 1024 1024" version="1.1" xmlns="http://www.w3.org/2000/svg"><path fill="#333333" d="M859.428571 950.857143h-694.857142a18.285714 18.285714 0 0 1-18.285715-18.285714v-841.142858a18.285714 18.285714 0 0 1 18.285715-18.285714h694.857142a18.285714 18.285714 0 0 1 18.285715 18.285714v841.142858a18.285714 18.285714 0 0 1-18.285715 18.285714zM182.857143 914.285714h658.285714V109.714286H182.857143zM512 384c-201.508571 0-365.714286-131.291429-365.714286-292.571429a18.285714 18.285714 0 0 1 36.571429 0c0 141.165714 146.285714 256 329.142857 256s329.142857-114.834286 329.142857-256a18.285714 18.285714 0 0 1 36.571429 0c0 161.28-164.205714 292.571429-365.714286 292.571429zM640 621.714286h-256a18.285714 18.285714 0 0 1 0-36.571429h256a18.285714 18.285714 0 0 1 0 36.571429zM640 713.142857h-256a18.285714 18.285714 0 0 1 0-36.571428h256a18.285714 18.285714 0 0 1 0 36.571428zM512 822.857143a18.285714 18.285714 0 0 1-18.285714-18.285714v-182.857143a18.285714 18.285714 0 0 1 36.571428 0v182.857143a18.285714 18.285714 0 0 1-18.285714 18.285714zM512 621.714286a19.017143 19.017143 0 0 1-12.068571-4.388572 18.651429 18.651429 0 0 1-1.828572-25.965714l128-146.285714a18.285714 18.285714 0 1 1 27.794286 24.137143l-128 146.285714A19.017143 19.017143 0 0 1 512 621.714286zM512 621.714286a19.017143 19.017143 0 0 1-13.897143-6.217143l-128-146.285714a18.285714 18.285714 0 1 1 27.794286-24.137143l128 146.285714a18.651429 18.651429 0 0 1-1.828572 25.965714 19.017143 19.017143 0 0 1-12.068571 4.388572z" /></svg>