<?xml version="1.0" standalone="no"?><!DOCTYPE svg PUBLIC "-//W3C//DTD SVG 1.1//EN" "http://www.w3.org/Graphics/SVG/1.1/DTD/svg11.dtd"><svg class="icon" width="200px" height="200.00px" viewBox="0 0 1024 1024" version="1.1" xmlns="http://www.w3.org/2000/svg"><path fill="#333333" d="M345.575067 876.527383a73.390128 73.390128 0 1 0 73.390129 73.390129 72.697769 72.697769 0 0 0-73.390129-73.390129zM858.613607 877.219743a73.390128 73.390128 0 1 0 73.390128 73.390129 72.697769 72.697769 0 0 0-73.390128-73.390129zM930.619016 840.524679H337.266751a108.008114 108.008114 0 0 1-105.238675-94.853279l-62.312373-436.186613-34.617985-204.246112a37.387424 37.387424 0 0 0-33.925626-32.540906H54.091633A36.695064 36.695064 0 0 1 54.091633 0h46.3881a109.392833 109.392833 0 0 1 106.623394 94.853279l35.310345 202.861393 62.312373 438.263692a36.002705 36.002705 0 0 0 32.540906 31.156186h593.352265a36.695064 36.695064 0 1 1 0 73.390129z"  /><path fill="#333333" d="M895.15295858 692.56741013l-632.17056533 22.89402774-89.36055894-590.8136128h784.30507094a57.60432747 57.60432747 0 0 1 57.60432746 65.72801493l-64.9894976 452.71093013a57.60432747 57.60432747 0 0 1-55.38877653 49.48064z"  /></svg>